PathFileType	4	(X/Y/Z)	C:/Users/beibeiliu/ov580/test_trc\sequence.9_training_dense_left.trc
DataRate	CameraRate	NumFrames	NumMarkers	Units	OrigDataRate	OrigDataStartFrame	OrigNumFrames
120	120	21	19	mm	120	101	200
Frame#	Time	ThumbCMC			ThumbMCP			ThumbIP			ThumbTip			IndexMCP			IndexPIP			IndexTip			MiddleMCP			MiddlePIP			MiddleTip			RingMCP			RingPIP			RingTip			PinkyMCP			PinkyPIP			PinkyTip			BackHand1			BackHand2			BackHand3	
		X0	Y0	Z0	X1	Y1	Z1	X2	Y2	Z2	X3	Y3	Z3	X4	Y4	Z4	X5	Y5	Z5	X6	Y6	Z6	X7	Y7	Z7	X8	Y8	Z8	X9	Y9	Z9	X10	Y10	Z10	X11	Y11	Z11	X12	Y12	Z12	X13	Y13	Z13	X14	Y14	Z14	X15	Y15	Z15	X16	Y16	Z16	X17	Y17	Z17	X18	Y18	Z18	
100	0.833333	-149.563	-26.3477	108.119	-119.396	-14.8849	89.9831	-102.83	-11.233	71.5231	-88.3551	-15.7301	50.5912	-144.516	-34.7635	34.3671	-118.096	-33.6932	21.4942	-85.5744	-35.8951	33.1831	-149.323	-60.1021	24.007	-129.735	-58.1434	4.73952	-96.4936	-52.7309	-4.12395	-151.368	-78.9454	33.733	-137.153	-79.458	9.35791	-112.06	-77.5243	-10.5595	-145.828	-99.2981	47.8521	-137.347	-100.155	24.7113	-123.081	-103.616	2.01209	-170.56	-81.4496	80.3255	-177.826	-78.7587	111.988	-177.688	-47.2913	93.7031	
101	0.841667	-146.648	-25.0276	103.606	-119.684	-20.1624	91.4296	-102.91	-15.7751	70.2197	-89.1902	-18.495	49.9855	-142.775	-33.75	34.1045	-117.008	-32.1416	21.8258	-83.5273	-38.3875	34.1645	-150.033	-58.3746	28.2559	-125.785	-58.9927	3.71827	-96.9969	-58.4957	-3.36979	-151.644	-77.7053	31.6511	-134.465	-81.3568	5.61052	-112.628	-78.0027	-10.1431	-146.872	-98.4682	46.6985	-138.251	-99.149	24.7066	-122.069	-104.513	-0.138817	-171.442	-80.161	80.3748	-175.748	-81.4139	107.024	-177.846	-46.6342	90.2495	
102	0.85	-145.235	-26.1938	104.993	-116.955	-19.4978	89.1859	-100.76	-17.2908	70.9001	-87.4527	-22.4161	49.5334	-140.782	-32.9474	32.3706	-114.067	-32.9347	21.7646	-86.5996	-40.7616	32.0286	-149.478	-61.4054	25.9799	-128.845	-56.6106	4.26205	-97.4541	-59.2257	-4.2068	-151.18	-81.8352	32.92	-135.86	-80.6201	6.54268	-112.484	-81.2303	-10.2425	-147.334	-97.3797	48.1978	-137.874	-100.381	21.8607	-122.399	-107.666	-0.190818	-170.362	-82.4052	79.9225	-176.379	-79.1225	107.29	-176.529	-50.7677	91.4881	
103	0.858333	-145.396	-30.1992	106.255	-118.997	-21.6942	92.0623	-100.235	-15.4552	72.1191	-87.7515	-21.8813	49.4507	-142.818	-37.1437	34.0939	-114.268	-36.4709	21.9293	-85.2387	-40.0595	33.551	-150.274	-61.3283	27.8624	-127.674	-61.4436	4.83877	-100.66	-60.3033	-2.65958	-152.408	-79.4493	33.4169	-137.904	-81.546	8.96148	-111.875	-81.3268	-9.07404	-149.077	-98.9465	47.4405	-138.911	-101.798	22.9846	-124.314	-107.557	-0.560467	-169.7	-82.073	81.1745	-176.667	-80.2651	108.612	-175.911	-51.5142	93.3677	
104	0.866667	-145.904	-30.1245	110.17	-118.148	-23.6803	91.615	-99.2523	-17.2931	72.4345	-86.8805	-23.7529	48.2051	-142.882	-37.3506	35.7254	-113.358	-39.5084	23.5782	-84.1232	-44.9549	34.7646	-150.334	-64.0054	30.168	-129.992	-62.7734	7.39084	-96.1365	-61.9227	-1.38561	-152.537	-82.5797	32.5443	-139.953	-83.2653	12.0585	-113.963	-81.5662	-7.0155	-148.903	-99.2032	52.9556	-140.444	-103.028	26.8877	-127.372	-110.919	4.00437	-172.301	-84.0666	83.1509	-179.835	-83.899	115.208	-175.255	-48.5287	98.0366	
105	0.875	-146.028	-30.042	108.218	-117.739	-23.1928	94.9487	-101.565	-21.0994	72.4009	-89.2959	-22.9138	55.7994	-143.141	-34.9179	38.383	-117.972	-39.6677	24.9932	-84.6108	-41.8507	34.4576	-151.717	-58.141	31.9079	-132.214	-60.9237	9.90412	-99.8976	-60.4143	-0.937079	-153.959	-80.4013	40.0059	-138.714	-80.9342	11.1224	-113.804	-81.5488	-7.43078	-149.497	-101.379	52.3474	-141.974	-104.332	29.0175	-130.076	-104.711	6.7627	-172.402	-78.5087	86.3433	-179.862	-79.2081	116.416	-174.857	-51.4695	95.8966	
106	0.883333	-146.337	-25.9431	111.705	-117.923	-20.1657	98.2497	-101.922	-18.6634	73.5158	-89.4969	-24.0168	50.6762	-143.296	-34.4839	37.1636	-117.398	-35.3776	25.2753	-88.5307	-40.6147	34.8889	-152.644	-59.2115	29.6667	-132.795	-59.2261	10.7354	-99.9542	-61.3923	-0.0474695	-155.514	-78.8462	39.7332	-141.029	-82.9452	14.252	-118.131	-82.0703	-3.74663	-151.171	-97.3146	48.9838	-142.333	-105.367	28.3107	-127.2	-106.654	2.8709	-172.144	-81.7786	85.4166	-179.903	-80.7984	118.022	-177.19	-47.2483	100.285	
107	0.891667	-148.713	-26.2101	113.394	-120.432	-18.816	93.5429	-105.257	-16.2447	75.4385	-92.1879	-19.5838	52.3739	-147.603	-30.3377	40.5032	-119.782	-32.6509	26.388	-90.4887	-39.0875	36.7318	-153.623	-56.7757	30.5266	-132.165	-55.4214	9.88996	-104.458	-57.6124	2.11655	-156.175	-78.0015	38.1749	-143.26	-82.3981	14.5234	-119.498	-75.9874	-4.09913	-153.421	-96.0463	51.1479	-143.735	-100.12	30.0754	-129.332	-101.633	6.13421	-174.573	-80.6671	86.5288	-180.962	-78.5823	118.03	-181.028	-45.9115	99.0148	
108	0.9	-151.149	-21.6876	113.206	-123.784	-16.8444	95.2637	-106.352	-10.7342	75.5921	-94.0588	-16.0136	56.6481	-147.646	-27.3389	40.0816	-119.624	-28.9975	27.1469	-88.8785	-31.7949	39.413	-155.102	-51.4859	30.3026	-131.436	-52.9968	9.7257	-101.582	-52.0964	2.45721	-156.72	-75.4156	35.4679	-143.759	-78.7491	14.7378	-118.563	-74.2151	-3.10773	-153.608	-94.1426	51.6363	-143.294	-100.076	27.8473	-132.866	-99.6133	7.51206	-176.766	-74.3191	86.6318	-183.958	-73.966	115.243	-179.806	-43.8895	97.9704	
109	0.908333	-151.865	-22.0383	110.081	-123.657	-11.5381	96.587	-107.399	-11.5218	76.4174	-94.6085	-16.5438	53.5537	-145.887	-29.9289	39.0077	-121.704	-28.7181	28.2413	-92.9957	-32.2704	38.0057	-156.407	-52.5384	34.8794	-133.663	-52.7889	9.83725	-104.612	-55.6539	3.54261	-157.783	-73.8921	37.3723	-141.281	-76.0769	12.7425	-120.757	-76.1344	-2.10722	-154.53	-95.1166	50.7054	-144.36	-95.5508	27.8554	-131.063	-101.685	6.33357	-177.078	-75.5609	89.6152	-186.147	-73.4568	117.215	-183.023	-42.264	100.571	
110	0.916667	-152.03	-19.8759	114.354	-122.433	-11.401	94.5404	-107.087	-11.1287	74.5759	-96.8955	-18.7739	54.2442	-147.107	-28.785	39.672	-118.132	-30.9021	28.45	-92.5641	-33.0029	37.4206	-154.944	-51.4454	31.6159	-132.925	-54.1899	9.8617	-99.3523	-52.4224	1.73947	-157.659	-72.1533	37.8102	-142.846	-75.7809	14.1321	-119.305	-76.063	-3.43956	-153.676	-91.7644	51.5805	-143.605	-95.7896	29.3493	-129.968	-98.0235	8.3552	-176.402	-76.3063	88.974	-184.688	-75.3334	117.273	-182.943	-41.2442	100.024	
111	0.925	-151.116	-20.3831	112.747	-123.901	-13.6115	100.003	-107.334	-9.63253	77.8624	-94.1195	-13.6605	56.8753	-146.251	-27.2532	39.6596	-119.883	-29.3245	26.732	-89.9733	-34.0697	39.71	-155.17	-49.2713	30.9322	-134.183	-53.8399	11.1069	-100.313	-53.9338	2.03082	-155.951	-73.9582	37.6506	-142.093	-77.3233	13.7183	-118.65	-75.378	-2.90188	-153.557	-93.9656	54.8191	-144.849	-98.3704	30.7188	-128.523	-100.914	4.19279	-174.844	-72.6272	83.6603	-183.508	-72.1584	115.825	-180.909	-43.9472	100.828	
112	0.933333	-150.632	-17.9579	115.277	-122.086	-12.3538	97.8343	-106.531	-9.89673	77.7159	-92.1541	-13.6976	56.101	-146.882	-25.9818	40.7294	-117.289	-24.9565	27.154	-88.0013	-32.2328	40.2511	-155.343	-53.9887	34.7765	-135.824	-50.2997	11.5431	-104.565	-51.7073	2.20914	-155.736	-72.6378	36.6017	-142.221	-75.4251	14.2588	-119.088	-72.4987	-2.58556	-152.573	-91.8571	50.5743	-144.412	-94.4187	31.777	-128.214	-97.2066	6.36065	-174.932	-74.4226	88.5098	-182.284	-72.0437	114.194	-181.368	-42.288	98.6507	
113	0.941667	-150.139	-17.7263	113.034	-124.321	-12.6153	100.634	-106.147	-8.19929	78.5053	-93.3401	-13.2177	55.6107	-148.436	-26.273	42.4976	-118.329	-26.3209	27.3645	-89.8635	-30.8847	38.9891	-154.476	-53.7696	30.7835	-136.638	-49.6836	11.8296	-99.9735	-52.3864	2.78802	-157.067	-70.924	36.1592	-142.993	-72.5186	15.1232	-117.2	-72.7256	-4.71121	-153.411	-91.8837	53.9423	-143.597	-97.1366	27.9691	-128.343	-98.8789	4.98694	-176.062	-70.3418	85.8898	-183.626	-75.7768	116.313	-181.435	-41.3028	102.482	
114	0.95	-152.34	-21.1941	117.719	-123.687	-13.3248	97.2546	-107.539	-8.99129	76.3081	-96.2986	-14.9313	58.3905	-150.227	-23.9315	42.2045	-120.985	-23.821	28.4658	-94.835	-32.4383	36.5318	-156.983	-46.6633	34.739	-133.062	-49.366	11.0005	-107.113	-47.4028	3.18923	-158.649	-71.7372	35.7314	-145.21	-71.8226	16.1185	-122.069	-70.134	-2.60866	-155.298	-88.0456	55.5862	-147.276	-91.7633	30.2942	-131.997	-97.4499	7.27691	-176.29	-72.4162	90.7313	-182.905	-75.7523	113.921	-183.246	-43.4919	103.234	
115	0.958333	-150.333	-20.9928	116.772	-124.267	-13.881	103.576	-105.503	-6.69311	78.9254	-96.1524	-12.2542	58.8528	-150.283	-19.7263	45.3224	-120.321	-19.7556	29.4955	-94.8824	-25.7726	36.7075	-157.223	-46.5354	34.9096	-133.399	-47.6371	12.133	-106.908	-44.6738	5.29558	-160.258	-64.4308	41.2662	-144.162	-66.4107	12.1162	-121.976	-64.5096	-2.63865	-157.84	-86.5306	51.3565	-148.064	-91.5319	29.7686	-133.862	-89.0087	4.99102	-176.822	-69.949	88.4347	-184.446	-70.7504	115.926	-180.713	-36.1608	103.884	
116	0.966667	-148.356	-18.2799	122.423	-120.526	-10.4315	101.233	-105.009	-4.40143	83.8785	-96.0986	-11.4302	59.0794	-148.019	-17.2001	48.7804	-123.176	-18.0006	32.0554	-92.5174	-24.5026	39.2876	-157.864	-41.4039	38.8621	-135.826	-38.537	14.2403	-104.841	-43.5042	6.41946	-160.966	-61.9939	42.627	-146.43	-60.9619	14.638	-124.3	-62.6098	-2.52339	-158.096	-79.8718	52.2848	-150.882	-86.7918	30.9104	-137.432	-87.4202	5.95107	-178.912	-62.1592	89.8924	-185.5	-70.0983	117.465	-181.198	-33.5154	108.529	
117	0.975	-143.222	-13.1359	126.839	-115.368	-4.42842	106.689	-102.703	-1.0929	88.0242	-93.6091	-5.52947	64.6056	-143.552	-11.9578	50.185	-116.666	-10.8964	36.6125	-88.6952	-22.1109	43.5779	-155.719	-34.125	42.6763	-135.44	-35.7799	19.3201	-105.832	-39.3663	9.16233	-158.943	-51.4925	44.766	-148.258	-53.1769	21.2052	-123.41	-55.0796	0.277403	-158.471	-76.1907	57.9134	-150.806	-78.5538	32.2184	-139.755	-77.2982	6.86492	-176.431	-56.8122	91.2743	-182.084	-59.5098	124.871	-177.155	-30.6339	109.61	
118	0.983333	-142.255	-10.7697	126.62	-114.939	-2.43806	107.744	-102.291	0.874925	87.2542	-89.1994	1.45831	65.8069	-142.399	-3.24928	53.9839	-114.399	-5.52343	39.1345	-89.0205	-17.9861	45.4965	-153.926	-25.0997	45.5819	-134.995	-25.0181	22.4857	-103.876	-31.4578	9.95034	-159.134	-48.5194	43.3128	-147.828	-49.6909	21.5225	-123.143	-49.0213	-0.124106	-159.099	-68.8916	58.8908	-153.436	-71.8635	35.3742	-141.916	-68.7287	9.53341	-177.929	-53.1243	96.0972	-183.048	-56.2654	125.92	-175.045	-21.5567	116.389	
119	0.991667	-142.733	-8.13013	127.688	-114.571	1.04808	110.555	-99.6884	5.02004	88.6737	-89.951	-0.0773618	66.5669	-144.312	0.312174	58.8964	-118.236	-1.68517	41.3719	-88.5488	-14.3073	48.1527	-155.196	-23.6096	44.8748	-133.135	-23.1478	21.0221	-102.756	-26.9792	9.32285	-160.656	-43.2857	46.0389	-147.223	-42.0062	22.3262	-126.09	-45.3195	3.53828	-160.038	-63.7431	58.7433	-152.909	-67.4703	34.9157	-140.496	-63.2127	10.5407	-179.052	-48.8605	93.8292	-183.905	-54.3702	124.287	-178.197	-21.7071	117.078	
120	1	-142.884	-4.24498	131.668	-116.597	-2.97479	114.681	-99.4631	0.698219	91.6696	-90.2673	-2.66801	72.3853	-144.586	-0.0294294	55.8709	-120.506	-2.28896	42.4977	-90.9543	-10.4929	47.5783	-157.259	-22.9316	49.1944	-135.29	-20.8214	23.4073	-107.861	-25.8703	12.6103	-161.556	-39.9306	51.9001	-149.351	-41.4215	25.7401	-124.832	-43.5613	2.95723	-160.258	-59.9	57.9289	-152.706	-61.8344	33.4974	-144.173	-64.3668	13.8713	-179.821	-48.8419	99.3345	-184.089	-53.1869	126.679	-177.076	-15.5818	114.95	
